<svg width="53" height="49" viewBox="0 0 53 49" fill="none" xmlns="http://www.w3.org/2000/svg">
<ellipse cx="26.5" cy="24.5" rx="26.5" ry="24.5" fill="white"/>
<path d="M26.7286 21.0025C27.3445 21.6355 28.0785 22.138 28.8881 22.481C29.6976 22.8239 30.5664 23.0004 31.4439 23.0001H31.446C32.3234 23.0003 33.1921 22.8238 34.0015 22.4808C34.811 22.1379 35.5449 21.6354 36.1607 21.0025C37.4133 19.7213 38.1146 17.9904 38.1114 16.1875C38.0976 15.6357 38.0002 15.0894 37.8225 14.5675C37.6241 13.9674 37.3818 13.3831 37.0975 12.8196C36.3697 11.3493 35.2676 9.61897 33.8217 7.67554C32.7877 6.28688 31.9578 5.30461 31.8669 5.19704L31.8655 5.19493C31.8133 5.1337 31.7486 5.08459 31.676 5.05095C31.6033 5.01731 31.5244 4.99993 31.4445 5C31.3646 5.00007 31.2857 5.01758 31.2131 5.05134C31.1405 5.0851 31.0759 5.13432 31.0238 5.19563L31.0217 5.19774C30.8564 5.39321 29.3592 7.16929 27.8606 9.36514C27.7769 9.48794 27.7448 9.63937 27.7713 9.78613C27.7979 9.9329 27.881 10.063 28.0023 10.1477C28.1235 10.2325 28.2731 10.265 28.4181 10.2381C28.563 10.2112 28.6915 10.1271 28.7752 10.0043C29.5668 8.84413 30.3662 7.79648 30.8974 7.12218C31.0828 6.88593 31.2676 6.65601 31.4446 6.43805C32.0446 7.17492 33.2134 8.65569 34.3266 10.3179C35.1259 11.5118 35.7579 12.5932 36.2058 13.5325C36.7232 14.6083 37.0058 15.5512 37.0002 16.1875C37.0053 17.6944 36.4193 19.1417 35.3711 20.2115C34.8581 20.7384 34.2469 21.1568 33.5728 21.4424C32.8988 21.728 32.1753 21.8751 31.4446 21.8751C30.7139 21.8751 29.9905 21.728 29.3165 21.4424C28.6424 21.1568 28.0311 20.7384 27.5182 20.2115C26.4698 19.1418 25.8838 17.6945 25.889 16.1875C25.8849 15.6032 26.1238 14.7539 26.5613 13.7948C26.6224 13.6592 26.628 13.5046 26.5767 13.3649C26.5254 13.2251 26.4214 13.1117 26.2877 13.0495C26.2152 13.0154 26.1363 12.9979 26.0564 12.9982C25.95 12.9982 25.8459 13.0292 25.7564 13.0874C25.6669 13.1456 25.5958 13.2286 25.5515 13.3265C25.0272 14.4916 24.7814 15.4007 24.7779 16.1875C24.7747 17.9904 25.4759 19.7213 26.7286 21.0025Z" fill="black"/>
<path d="M26.821 12.0574C26.9152 12.1146 27.024 12.1424 27.1337 12.137C27.2434 12.1317 27.3491 12.0936 27.4374 12.0275C27.5257 11.9614 27.5927 11.8703 27.6299 11.7656C27.6671 11.661 27.6728 11.5475 27.6463 11.4396C27.6198 11.3317 27.5623 11.2341 27.4811 11.1592C27.3999 11.0844 27.2986 11.0356 27.19 11.019C27.0814 11.0024 26.9703 11.0188 26.8709 11.0661C26.7715 11.1133 26.6882 11.1894 26.6314 11.2846C26.6314 11.2848 26.6313 11.285 26.6312 11.2851C26.6311 11.2853 26.6309 11.2853 26.6307 11.2853C26.5551 11.4133 26.5326 11.5664 26.5683 11.7112C26.604 11.8559 26.6948 11.9804 26.821 12.0574Z" fill="black"/>
<path d="M33.6674 20.0311C33.7825 20.0312 33.8947 19.9949 33.9885 19.9272C34.5767 19.5024 35.0561 18.9413 35.3867 18.2908C35.7174 17.6403 35.8896 16.9192 35.8891 16.1876C35.8891 16.0384 35.8306 15.8954 35.7264 15.7899C35.6222 15.6844 35.4809 15.6251 35.3336 15.6251C35.1862 15.6251 35.0449 15.6844 34.9407 15.7899C34.8365 15.8954 34.778 16.0384 34.778 16.1876C34.7786 16.7396 34.6489 17.2838 34.3997 17.7747C34.1505 18.2656 33.789 18.6891 33.3453 19.0099C33.2491 19.079 33.1772 19.1772 33.1398 19.2905C33.1025 19.4037 33.1017 19.526 33.1376 19.6397C33.1734 19.7534 33.2441 19.8526 33.3393 19.923C33.4346 19.9934 33.5495 20.0312 33.6674 20.0311Z" fill="black"/>
<path d="M31.4446 20.7501C31.7515 20.7501 32.0002 20.4983 32.0002 20.1876C32.0002 19.877 31.7515 19.6251 31.4446 19.6251C31.1378 19.6251 30.8891 19.877 30.8891 20.1876C30.8891 20.4983 31.1378 20.7501 31.4446 20.7501Z" fill="black"/>
<path d="M28.9663 30.919L24.1019 32.0134C24.0307 32.0294 23.9632 32.0595 23.9035 32.1019C23.8438 32.1443 23.7928 32.1982 23.7537 32.2605C23.7145 32.3228 23.6878 32.3924 23.6752 32.4651C23.6625 32.5379 23.6642 32.6124 23.68 32.6845C23.6958 32.7567 23.7255 32.8249 23.7674 32.8854C23.8093 32.9459 23.8625 32.9974 23.9241 33.0371C23.9856 33.0768 24.0543 33.1038 24.1261 33.1166C24.198 33.1294 24.2716 33.1277 24.3429 33.1117L29.3429 31.9867C29.4319 31.9666 29.5147 31.9247 29.584 31.8646L33.4729 28.4897C33.4837 28.4803 33.4941 28.4705 33.5042 28.4603L35.7264 26.2103C35.778 26.1581 35.8189 26.0961 35.8469 26.0279C35.8748 25.9596 35.8892 25.8865 35.8892 25.8126C35.8892 25.7387 35.8748 25.6656 35.8469 25.5973C35.8189 25.5291 35.778 25.4671 35.7264 25.4148C35.1857 24.8686 34.4549 24.559 33.6911 24.5526C32.9273 24.5462 32.1915 24.8434 31.6419 25.3804L27.893 28.0917L24.8697 28.6018C23.8207 28.0532 18.3409 25.2501 15.889 25.2501C15.7416 25.2501 15.6003 25.3094 15.4961 25.4148C15.3919 25.5203 15.3334 25.6634 15.3334 25.8126C15.3334 25.9618 15.3919 26.1048 15.4961 26.2103C15.6003 26.3158 15.7416 26.3751 15.889 26.3751C17.87 26.3751 22.7905 28.7646 24.5192 29.6854C24.6266 29.7426 24.7496 29.7626 24.8693 29.7424L28.2026 29.1799C28.2861 29.1658 28.3653 29.1326 28.4342 29.0828L32.3231 26.2703C32.348 26.2523 32.3714 26.2322 32.3931 26.2103C32.6625 25.9382 33.01 25.7593 33.3858 25.6992C33.7617 25.639 34.1467 25.7006 34.4859 25.8753L32.7336 27.6495L28.9663 30.919Z" fill="black"/>
<path d="M41.9416 33.436C41.5686 32.6804 40.9582 32.0718 40.2062 31.7059C39.4543 31.34 38.6035 31.2375 37.7878 31.4146C37.7158 31.4295 37.6474 31.4586 37.5866 31.5003C37.5258 31.542 37.4738 31.5956 37.4336 31.6578C37.3933 31.72 37.3657 31.7897 37.3522 31.8628C37.3388 31.9359 37.3398 32.011 37.3551 32.0837C37.3705 32.1565 37.4 32.2254 37.4419 32.2865C37.4838 32.3476 37.5372 32.3997 37.5991 32.4398C37.661 32.4798 37.7301 32.5071 37.8024 32.5199C37.8748 32.5328 37.9489 32.531 38.0206 32.5146C38.4729 32.4164 38.9427 32.4398 39.3833 32.5823C39.824 32.7248 40.2201 32.9816 40.5324 33.3271L31.8726 35.39C31.8012 35.4065 31.7337 35.4372 31.674 35.4803C31.6144 35.5233 31.5637 35.5778 31.5249 35.6408C31.4862 35.7037 31.4601 35.7738 31.4482 35.847C31.4363 35.9202 31.4388 35.9951 31.4556 36.0673C31.4724 36.1395 31.5031 36.2076 31.546 36.2677C31.5889 36.3279 31.6431 36.3788 31.7055 36.4177C31.768 36.4565 31.8374 36.4824 31.9097 36.494C31.9821 36.5056 32.056 36.5025 32.1272 36.4851L41.5717 34.2351C41.6533 34.2156 41.7295 34.1777 41.7946 34.1242C41.8597 34.0707 41.912 34.003 41.9475 33.9261C41.9831 33.8492 42.001 33.7652 41.9999 33.6803C41.9988 33.5954 41.9788 33.5119 41.9413 33.436H41.9416Z" fill="black"/>
<path d="M17.4445 23.6462C19.0529 24.0224 20.4668 24.7086 21.6487 25.6853C22.0557 26.0221 22.789 26.5895 23.8911 27.4192C23.9864 27.4917 24.1025 27.5307 24.2217 27.5303C24.3386 27.5305 24.4526 27.4934 24.5474 27.4243C24.6423 27.3551 24.7132 27.2574 24.7501 27.1451C24.7869 27.0328 24.7878 26.9115 24.7527 26.7986C24.7176 26.6858 24.6481 26.587 24.5543 26.5164C23.8154 25.9602 22.8335 25.2135 22.3515 24.8141C21.0369 23.7264 19.4696 22.9649 17.6945 22.55C17.6533 22.5402 17.6112 22.5352 17.5688 22.5353C17.4322 22.5351 17.3002 22.5859 17.1982 22.6779C17.0962 22.77 17.0313 22.897 17.016 23.0345C17.0006 23.1719 17.0358 23.3104 17.1148 23.4232C17.1939 23.5361 17.3113 23.6155 17.4445 23.6462Z" fill="black"/>
<path d="M7.55559 24.6876C7.61435 24.6877 7.67274 24.6782 7.7285 24.6594L9.38963 24.1096C10.6276 23.7205 11.904 23.4703 13.1959 23.3636C13.3429 23.3517 13.4792 23.2813 13.5749 23.1677C13.6705 23.0541 13.7177 22.9067 13.706 22.7578C13.6943 22.609 13.6247 22.471 13.5125 22.3742C13.4003 22.2773 13.2547 22.2296 13.1077 22.2414C11.7336 22.3559 10.376 22.6221 9.05907 23.0352L7.38267 23.5907C7.2572 23.6324 7.15053 23.7181 7.08178 23.8323C7.01303 23.9464 6.98671 24.0817 7.00753 24.2137C7.02834 24.3458 7.09494 24.466 7.19538 24.5528C7.29581 24.6397 7.42352 24.6874 7.55559 24.6876Z" fill="black"/>
<path d="M15.3376 23.3411C15.3487 23.3418 15.3605 23.3425 15.373 23.3425C15.5201 23.3436 15.6618 23.2862 15.7675 23.1824C15.8731 23.0787 15.9343 22.9371 15.9377 22.7882C15.9411 22.6392 15.8866 22.4949 15.7859 22.3863C15.6851 22.2777 15.5462 22.2136 15.3992 22.2077C15.2521 22.2019 15.1087 22.2548 14.9999 22.3551C14.8911 22.4554 14.8255 22.5949 14.8174 22.7437C14.8093 22.8925 14.8594 23.0385 14.9567 23.1503C15.054 23.262 15.1908 23.3306 15.3376 23.3411Z" fill="black"/>
<path d="M37.0412 36.8585L35.5093 36.3415C35.3695 36.2944 35.2169 36.3053 35.0851 36.3721C34.9533 36.4388 34.8531 36.5558 34.8065 36.6973C34.7599 36.8388 34.7708 36.9933 34.8367 37.1267C34.9025 37.2602 35.0181 37.3616 35.1579 37.4088L36.6898 37.9258C37.052 38.0481 37.3591 38.2975 37.5555 38.6291C37.7519 38.9606 37.8247 39.3523 37.7607 39.7335L26.7415 36.163L32.2301 33.6371C32.2408 33.6321 32.2513 33.6269 32.2617 33.6213L40.5951 29.1213C40.6658 29.0831 40.7275 29.0299 40.776 28.9653C40.8245 28.9007 40.8586 28.8262 40.876 28.747C40.8933 28.6678 40.8936 28.5857 40.8767 28.5064C40.8598 28.4271 40.8262 28.3524 40.7781 28.2875C40.2326 27.5504 39.4487 27.0308 38.5634 26.8191C37.6781 26.6075 36.7475 26.7174 35.934 27.1297C35.8025 27.1966 35.7027 27.3136 35.6563 27.4549C35.6099 27.5963 35.6208 27.7505 35.6866 27.8838C35.7524 28.017 35.8677 28.1184 36.0073 28.1657C36.1468 28.2129 36.2991 28.2022 36.4309 28.1359C36.9097 27.8933 37.4477 27.7963 37.9798 27.8566C38.512 27.9169 39.0154 28.1319 39.4294 28.4757L31.7544 32.6202L25.7687 35.375H22.6812L11.1277 29.8046C11.0531 29.7687 10.9715 29.75 10.8889 29.75H7.55556C7.40822 29.75 7.26691 29.8093 7.16272 29.9147C7.05853 30.0202 7 30.1633 7 30.3125C7 30.4617 7.05853 30.6047 7.16272 30.7102C7.26691 30.8157 7.40822 30.875 7.55556 30.875H10.7634L22.3169 36.4453C22.3915 36.4813 22.4731 36.4999 22.5557 36.5H24.1356L37.9421 40.9732C38.0683 41.0141 38.2049 41.0079 38.3271 40.9558C38.4492 40.9037 38.549 40.8091 38.6083 40.689C38.7819 40.3374 38.8789 39.952 38.8926 39.5591C38.9064 39.1662 38.8366 38.7749 38.688 38.4117C38.5394 38.0485 38.3155 37.7218 38.0313 37.4539C37.7472 37.1859 37.4095 36.9829 37.0412 36.8585Z" fill="black"/>
</svg>
