<svg width="22" height="20" viewBox="0 0 22 20" fill="none" xmlns="http://www.w3.org/2000/svg">
<path d="M11 0C6.73527 0 3.26562 3.15422 3.26562 7.03125C3.26562 8.34117 3.66476 9.61953 4.42015 10.7286L10.5597 19.723C10.6773 19.8953 10.8845 20 11.1074 20C11.1091 20 11.1108 20 11.1125 20C11.3373 19.9984 11.5449 19.8905 11.6603 19.7152L17.6434 10.6336C18.3572 9.54797 18.7344 8.30231 18.7344 7.03125C18.7344 3.15422 15.2647 0 11 0ZM16.5372 10.032L11.0976 18.2885L5.51577 10.1112C4.88701 9.18805 4.54609 8.12305 4.54609 7.03125C4.54609 3.80039 7.44605 1.16406 11 1.16406C14.5539 1.16406 17.4496 3.80039 17.4496 7.03125C17.4496 8.09066 17.1312 9.12844 16.5372 10.032Z" fill="#333333"/>
<path d="M11 3.51562C8.86763 3.51562 7.13281 5.09273 7.13281 7.03125C7.13281 8.95738 8.8394 10.5469 11 10.5469C13.1872 10.5469 14.8672 8.93621 14.8672 7.03125C14.8672 5.09273 13.1324 3.51562 11 3.51562ZM11 9.38281C9.57099 9.38281 8.41328 8.32684 8.41328 7.03125C8.41328 5.73891 9.57842 4.67969 11 4.67969C12.4216 4.67969 13.5824 5.73891 13.5824 7.03125C13.5824 8.30793 12.4517 9.38281 11 9.38281Z" fill="#333333"/>
</svg>
