<svg width="38" height="38" viewBox="0 0 38 38" fill="none" xmlns="http://www.w3.org/2000/svg">
<g filter="url(#filter0_d_13_28)">
<path d="M32.8281 13.8281H20.1719V1.17188C20.1719 0.524648 19.6472 0 19 0C18.3528 0 17.8281 0.524648 17.8281 1.17188V13.8281H5.17188C4.52465 13.8281 4 14.3528 4 15C4 15.6472 4.52465 16.1719 5.17188 16.1719H17.8281V28.8281C17.8281 29.4754 18.3528 30 19 30C19.6472 30 20.1719 29.4754 20.1719 28.8281V16.1719H32.8281C33.4754 16.1719 34 15.6472 34 15C34 14.3528 33.4754 13.8281 32.8281 13.8281Z" fill="#F1CE5C" fill-opacity="0.8"/>
</g>
<defs>
<filter id="filter0_d_13_28" x="0" y="0" width="38" height="38" filterUnits="userSpaceOnUse" color-interpolation-filters="sRGB">
<feFlood flood-opacity="0" result="BackgroundImageFix"/>
<feColorMatrix in="SourceAlpha" type="matrix" values="0 0 0 0 0 0 0 0 0 0 0 0 0 0 0 0 0 0 127 0" result="hardAlpha"/>
<feOffset dy="4"/>
<feGaussianBlur stdDeviation="2"/>
<feComposite in2="hardAlpha" operator="out"/>
<feColorMatrix type="matrix" values="0 0 0 0 0 0 0 0 0 0 0 0 0 0 0 0 0 0 0.25 0"/>
<feBlend mode="normal" in2="BackgroundImageFix" result="effect1_dropShadow_13_28"/>
<feBlend mode="normal" in="SourceGraphic" in2="effect1_dropShadow_13_28" result="shape"/>
</filter>
</defs>
</svg>
